{
  "asset": {
    "version": "2.0",
    "generator": "make-audio-demo.mjs"
  },
  "extensionsUsed": [
    "KHR_audio_emitter",
    "KHR_audio_environment",
    "KHR_interactivity"
  ],
  "extensions": {
    "KHR_audio_emitter": {
      "audio": [
        {
          "uri": "kick.wav"
        },
        {
          "uri": "snare.wav"
        },
        {
          "uri": "hihat.wav"
        }
      ],
      "sources": [
        {
          "name": "kick",
          "audio": 0,
          "gain": 1
        },
        {
          "name": "snare",
          "audio": 1,
          "gain": 0.9
        },
        {
          "name": "hihat",
          "audio": 2,
          "gain": 0.7
        }
      ],
      "emitters": [
        {
          "name": "KickPadEmitter",
          "type": "positional",
          "gain": 1,
          "sources": [
            0
          ],
          "positional": {
            "shapeType": "omnidirectional",
            "distanceModel": "inverse",
            "refDistance": 1,
            "maxDistance": 40,
            "rolloffFactor": 1,
            "extensions": {
              "KHR_audio_environment": {
                "airAbsorption": {
                  "enabled": true,
                  "cutoffAtMaxDistance": 6000
                }
              }
            }
          },
          "extensions": {
            "KHR_audio_environment": {
              "directLevel": 1,
              "reverbLevel": 0.6
            }
          }
        },
        {
          "name": "SnarePadEmitter",
          "type": "positional",
          "gain": 1,
          "sources": [
            1
          ],
          "positional": {
            "shapeType": "omnidirectional",
            "distanceModel": "inverse",
            "refDistance": 1,
            "maxDistance": 40,
            "rolloffFactor": 1,
            "extensions": {
              "KHR_audio_environment": {
                "airAbsorption": {
                  "enabled": true,
                  "cutoffAtMaxDistance": 6000
                }
              }
            }
          },
          "extensions": {
            "KHR_audio_environment": {
              "directLevel": 1,
              "reverbLevel": 0.6
            }
          }
        },
        {
          "name": "HihatPadEmitter",
          "type": "positional",
          "gain": 1,
          "sources": [
            2
          ],
          "positional": {
            "shapeType": "omnidirectional",
            "distanceModel": "inverse",
            "refDistance": 1,
            "maxDistance": 40,
            "rolloffFactor": 1,
            "extensions": {
              "KHR_audio_environment": {
                "airAbsorption": {
                  "enabled": true,
                  "cutoffAtMaxDistance": 6000
                }
              }
            }
          },
          "extensions": {
            "KHR_audio_environment": {
              "directLevel": 1,
              "reverbLevel": 0.6
            }
          }
        }
      ]
    },
    "KHR_audio_environment": {
      "listeners": [
        {
          "name": "Player",
          "gain": 1,
          "spatializationModel": "HRTF"
        }
      ],
      "environments": [
        {
          "name": "Studio",
          "reverb": {
            "preset": "mediumRoom",
            "mix": 0.3
          }
        }
      ]
    },
    "KHR_interactivity": {
      "graph": 0,
      "graphs": [
        {
          "types": [
            {
              "signature": "float"
            }
          ],
          "declarations": [
            {
              "op": "event/onSelect"
            },
            {
              "op": "pointer/set"
            }
          ],
          "nodes": [
            {
              "declaration": 0,
              "configuration": {
                "nodeIndex": {
                  "value": [
                    0
                  ]
                },
                "stopPropagation": {
                  "value": [
                    true
                  ]
                }
              },
              "flows": {
                "out": {
                  "node": 1,
                  "socket": "in"
                }
              }
            },
            {
              "declaration": 1,
              "configuration": {
                "pointer": {
                  "value": [
                    "/extensions/KHR_audio_emitter/sources/0/playing"
                  ]
                },
                "type": {
                  "value": [
                    0
                  ]
                }
              },
              "values": {
                "value": {
                  "value": [
                    1
                  ],
                  "type": 0
                }
              }
            },
            {
              "declaration": 0,
              "configuration": {
                "nodeIndex": {
                  "value": [
                    1
                  ]
                },
                "stopPropagation": {
                  "value": [
                    true
                  ]
                }
              },
              "flows": {
                "out": {
                  "node": 3,
                  "socket": "in"
                }
              }
            },
            {
              "declaration": 1,
              "configuration": {
                "pointer": {
                  "value": [
                    "/extensions/KHR_audio_emitter/sources/1/playing"
                  ]
                },
                "type": {
                  "value": [
                    0
                  ]
                }
              },
              "values": {
                "value": {
                  "value": [
                    1
                  ],
                  "type": 0
                }
              }
            },
            {
              "declaration": 0,
              "configuration": {
                "nodeIndex": {
                  "value": [
                    2
                  ]
                },
                "stopPropagation": {
                  "value": [
                    true
                  ]
                }
              },
              "flows": {
                "out": {
                  "node": 5,
                  "socket": "in"
                }
              }
            },
            {
              "declaration": 1,
              "configuration": {
                "pointer": {
                  "value": [
                    "/extensions/KHR_audio_emitter/sources/2/playing"
                  ]
                },
                "type": {
                  "value": [
                    0
                  ]
                }
              },
              "values": {
                "value": {
                  "value": [
                    1
                  ],
                  "type": 0
                }
              }
            }
          ],
          "variables": []
        }
      ]
    }
  },
  "scenes": [
    {
      "name": "DrumPads",
      "nodes": [
        0,
        1,
        2,
        3
      ],
      "extensions": {
        "KHR_audio_environment": {
          "environment": 0,
          "activeListener": 0
        }
      }
    }
  ],
  "scene": 0,
  "nodes": [
    {
      "name": "KickPad",
      "mesh": 0,
      "translation": [
        -1.6,
        0,
        0
      ],
      "extensions": {
        "KHR_audio_emitter": {
          "emitters": [
            0
          ]
        }
      }
    },
    {
      "name": "SnarePad",
      "mesh": 1,
      "translation": [
        0,
        0,
        0
      ],
      "extensions": {
        "KHR_audio_emitter": {
          "emitters": [
            1
          ]
        }
      }
    },
    {
      "name": "HihatPad",
      "mesh": 2,
      "translation": [
        1.6,
        0,
        0
      ],
      "extensions": {
        "KHR_audio_emitter": {
          "emitters": [
            2
          ]
        }
      }
    },
    {
      "name": "ListenerCamera",
      "camera": 0,
      "translation": [
        0,
        1.2,
        4
      ],
      "extensions": {
        "KHR_audio_environment": {
          "listener": 0
        }
      }
    }
  ],
  "cameras": [
    {
      "type": "perspective",
      "perspective": {
        "yfov": 0.8,
        "znear": 0.05,
        "zfar": 100
      }
    }
  ],
  "meshes": [
    {
      "name": "KickPadMesh",
      "primitives": [
        {
          "attributes": {
            "POSITION": 0,
            "NORMAL": 1
          },
          "indices": 2,
          "material": 0,
          "mode": 4
        }
      ]
    },
    {
      "name": "SnarePadMesh",
      "primitives": [
        {
          "attributes": {
            "POSITION": 0,
            "NORMAL": 1
          },
          "indices": 2,
          "material": 1,
          "mode": 4
        }
      ]
    },
    {
      "name": "HihatPadMesh",
      "primitives": [
        {
          "attributes": {
            "POSITION": 0,
            "NORMAL": 1
          },
          "indices": 2,
          "material": 2,
          "mode": 4
        }
      ]
    }
  ],
  "materials": [
    {
      "name": "KickPadMaterial",
      "pbrMetallicRoughness": {
        "baseColorFactor": [
          0.85,
          0.2,
          0.2,
          1
        ],
        "metallicFactor": 0.1,
        "roughnessFactor": 0.6
      }
    },
    {
      "name": "SnarePadMaterial",
      "pbrMetallicRoughness": {
        "baseColorFactor": [
          0.2,
          0.6,
          0.85,
          1
        ],
        "metallicFactor": 0.1,
        "roughnessFactor": 0.6
      }
    },
    {
      "name": "HihatPadMaterial",
      "pbrMetallicRoughness": {
        "baseColorFactor": [
          0.9,
          0.8,
          0.25,
          1
        ],
        "metallicFactor": 0.1,
        "roughnessFactor": 0.6
      }
    }
  ],
  "buffers": [
    {
      "uri": "drum-pads.bin",
      "byteLength": 648
    }
  ],
  "bufferViews": [
    {
      "buffer": 0,
      "byteOffset": 0,
      "byteLength": 288,
      "target": 34962
    },
    {
      "buffer": 0,
      "byteOffset": 288,
      "byteLength": 288,
      "target": 34962
    },
    {
      "buffer": 0,
      "byteOffset": 576,
      "byteLength": 72,
      "target": 34963
    }
  ],
  "accessors": [
    {
      "bufferView": 0,
      "componentType": 5126,
      "count": 24,
      "type": "VEC3",
      "min": [
        -0.5,
        -0.5,
        -0.5
      ],
      "max": [
        0.5,
        0.5,
        0.5
      ]
    },
    {
      "bufferView": 1,
      "componentType": 5126,
      "count": 24,
      "type": "VEC3"
    },
    {
      "bufferView": 2,
      "componentType": 5123,
      "count": 36,
      "type": "SCALAR"
    }
  ]
}